<?xml version="1.0" encoding="utf-8"?>
<!-- Generator: Adobe Illustrator 23.0.1, SVG Export Plug-In . SVG Version: 6.00 Build 0)  -->
<svg version="1.1" id="Layer_1" xmlns="http://www.w3.org/2000/svg" xmlns:xlink="http://www.w3.org/1999/xlink" x="0px" y="0px"
	 viewBox="0 0 124 33" style="enable-background:new 0 0 124 33;" xml:space="preserve">
<style type="text/css">
	.st0{fill:#253B80;}
	.st1{fill:#179BD7;}
	.st2{fill:#222D65;}
	.st3{fill:#FDBA14;}
	.st4{fill:#3C4B74;}
</style>
<path class="st0" d="M46.2,6.7h-6.8c-0.5,0-0.9,0.3-0.9,0.8l-2.8,17.5c-0.1,0.3,0.2,0.7,0.6,0.7h3.3c0.5,0,0.9-0.3,0.9-0.8l0.7-4.7
	c0.1-0.5,0.5-0.8,0.9-0.8h2.2c4.5,0,7.1-2.2,7.8-6.5c0.3-1.9,0-3.4-0.9-4.4C50.2,7.4,48.5,6.7,46.2,6.7z M47,13.2
	c-0.4,2.5-2.2,2.5-4.1,2.5h-1l0.7-4.6c0-0.3,0.3-0.5,0.6-0.5h0.5c1.2,0,2.4,0,3,0.7C47,11.7,47.1,12.3,47,13.2z"/>
<path class="st0" d="M66.7,13.1h-3.3c-0.3,0-0.5,0.2-0.6,0.5l-0.1,0.9l-0.2-0.3c-0.7-1-2.3-1.4-3.9-1.4c-3.6,0-6.7,2.7-7.3,6.6
	c-0.3,1.9,0.1,3.8,1.2,5c1,1.2,2.4,1.7,4.1,1.7c2.9,0,4.5-1.9,4.5-1.9L61,25.1c-0.1,0.3,0.2,0.7,0.6,0.7h2.9c0.5,0,0.9-0.3,0.9-0.8
	l1.8-11.2C67.3,13.4,67,13.1,66.7,13.1z M62.1,19.4c-0.3,1.9-1.8,3.1-3.7,3.1c-1,0-1.7-0.3-2.2-0.9c-0.5-0.6-0.7-1.4-0.5-2.3
	c0.3-1.9,1.8-3.2,3.7-3.2c0.9,0,1.7,0.3,2.2,0.9C62,17.7,62.2,18.5,62.1,19.4z"/>
<path class="st0" d="M84.1,13.1h-3.3c-0.3,0-0.6,0.2-0.8,0.4l-4.5,6.7l-1.9-6.4c-0.1-0.4-0.5-0.7-0.9-0.7h-3.2
	c-0.4,0-0.7,0.4-0.5,0.8l3.6,10.6l-3.4,4.8c-0.3,0.4,0,0.9,0.5,0.9h3.3c0.3,0,0.6-0.2,0.8-0.4L84.6,14
	C84.8,13.6,84.6,13.1,84.1,13.1z"/>
<path class="st1" d="M95,6.7h-6.8c-0.5,0-0.9,0.3-0.9,0.8l-2.8,17.5c-0.1,0.3,0.2,0.7,0.6,0.7h3.5c0.3,0,0.6-0.2,0.7-0.6l0.8-5
	c0.1-0.5,0.5-0.8,0.9-0.8h2.2c4.5,0,7.1-2.2,7.8-6.5c0.3-1.9,0-3.4-0.9-4.4C99,7.4,97.3,6.7,95,6.7z M95.8,13.2
	c-0.4,2.5-2.2,2.5-4.1,2.5h-1l0.7-4.6c0-0.3,0.3-0.5,0.6-0.5h0.5c1.2,0,2.4,0,3,0.7C95.8,11.7,95.9,12.3,95.8,13.2z"/>
<path class="st1" d="M115.4,13.1h-3.3c-0.3,0-0.5,0.2-0.6,0.5l-0.1,0.9l-0.2-0.3c-0.7-1-2.3-1.4-3.9-1.4c-3.6,0-6.7,2.7-7.3,6.6
	c-0.3,1.9,0.1,3.8,1.2,5c1,1.2,2.4,1.7,4.1,1.7c2.9,0,4.5-1.9,4.5-1.9l-0.1,0.9c-0.1,0.3,0.2,0.7,0.6,0.7h2.9c0.5,0,0.9-0.3,0.9-0.8
	l1.8-11.2C116.1,13.4,115.8,13.1,115.4,13.1z M110.9,19.4c-0.3,1.9-1.8,3.1-3.7,3.1c-0.9,0-1.7-0.3-2.2-0.9
	c-0.5-0.6-0.7-1.4-0.5-2.3c0.3-1.9,1.8-3.2,3.7-3.2c0.9,0,1.7,0.3,2.2,0.9C110.8,17.7,111,18.5,110.9,19.4z"/>
<path class="st1" d="M119.3,7.2l-2.8,17.9c-0.1,0.3,0.2,0.7,0.6,0.7h2.8c0.5,0,0.9-0.3,0.9-0.8l2.8-17.5c0.1-0.3-0.2-0.7-0.6-0.7
	h-3.2C119.6,6.7,119.3,7,119.3,7.2z"/>
<path class="st0" d="M7.3,29.2l0.5-3.3l-1.2,0H1.1L4.9,1.3C4.9,1.2,5,1.1,5,1.1C5.1,1.1,5.2,1,5.2,1h9.4C17.7,1,19.9,1.7,21,3
	c0.5,0.6,0.9,1.2,1,1.9c0.2,0.7,0.2,1.6,0,2.6l0,0.1v0.7l0.5,0.3c0.4,0.2,0.8,0.5,1.1,0.8c0.5,0.5,0.7,1.2,0.9,1.9
	c0.1,0.8,0.1,1.7-0.1,2.8c-0.2,1.2-0.6,2.3-1.2,3.2c-0.5,0.8-1.1,1.5-1.8,2c-0.7,0.5-1.5,0.9-2.5,1.1c-0.9,0.2-1.9,0.4-3.1,0.4h-0.7
	c-0.5,0-1,0.2-1.4,0.5c-0.4,0.3-0.7,0.8-0.7,1.3l-0.1,0.3L12,28.8l0,0.2c0,0.1,0,0.1-0.1,0.1c0,0-0.1,0-0.1,0
	C11.8,29.2,7.3,29.2,7.3,29.2z"/>
<path class="st1" d="M23,7.7L23,7.7L23,7.7C23,7.8,23,8,23,8.2c-1.2,6.4-5.5,8.5-10.9,8.5H9.3c-0.7,0-1.2,0.5-1.3,1.1l0,0l0,0
	l-1.4,8.9l-0.4,2.5c-0.1,0.4,0.3,0.8,0.7,0.8h4.9c0.6,0,1.1-0.4,1.2-1l0-0.2l0.9-5.8l0.1-0.3c0.1-0.6,0.6-1,1.2-1h0.7
	c4.7,0,8.4-1.9,9.5-7.5c0.5-2.3,0.2-4.3-1-5.6C24,8.3,23.6,7.9,23,7.7z"/>
<path class="st2" d="M21.8,7.2C21.6,7.1,21.4,7,21.2,7c-0.2,0-0.4-0.1-0.6-0.1c-0.7-0.1-1.6-0.2-2.4-0.2h-7.4c-0.2,0-0.4,0-0.5,0.1
	C9.9,7,9.7,7.3,9.6,7.7l-1.6,9.9l0,0.3c0.1-0.7,0.7-1.1,1.3-1.1h2.8c5.4,0,9.6-2.2,10.9-8.5C23,8,23,7.8,23,7.7
	c-0.3-0.2-0.7-0.3-1-0.4C21.9,7.2,21.8,7.2,21.8,7.2z"/>
<path class="st0" d="M9.6,7.7C9.7,7.3,9.9,7,10.3,6.8c0.2-0.1,0.3-0.1,0.5-0.1h7.4c0.9,0,1.7,0.1,2.4,0.2C20.8,6.9,21,7,21.2,7
	c0.2,0,0.4,0.1,0.6,0.2c0.1,0,0.2,0.1,0.3,0.1c0.4,0.1,0.7,0.3,1,0.4c0.4-2.3,0-3.9-1.3-5.4C20.4,0.7,17.9,0,14.6,0H5.2
	C4.6,0,4,0.5,3.9,1.1L0,25.9c-0.1,0.5,0.3,0.9,0.8,0.9h5.8L8,17.6L9.6,7.7z"/>
<rect class="st3" width="124" height="33.3"/>
<g>
	<path class="st4" d="M35.7,12.9c0-0.1,0-0.2,0-0.2c0-0.1,0.1-0.1,0.2-0.1h3c0.5,0,1,0.1,1.4,0.3c0.4,0.2,0.7,0.4,1,0.7
		c0.3,0.3,0.5,0.6,0.6,1c0.1,0.4,0.2,0.7,0.2,1.1c0,0.4-0.1,0.8-0.2,1.1c-0.1,0.4-0.3,0.7-0.6,1c-0.3,0.3-0.6,0.5-1,0.7
		c-0.4,0.2-0.9,0.3-1.4,0.3h-2v2.9c0,0.1,0,0.2,0,0.2c0,0.1-0.1,0.1-0.2,0.1h-0.8c-0.1,0-0.1,0-0.2-0.1c0-0.1,0-0.1,0-0.2L35.7,12.9
		L35.7,12.9z M36.9,17.5h2c0.3,0,0.5-0.1,0.7-0.1c0.2-0.1,0.4-0.2,0.6-0.4c0.2-0.2,0.3-0.4,0.4-0.6c0.1-0.2,0.1-0.5,0.1-0.8
		c0-0.3-0.1-0.5-0.1-0.7c-0.1-0.2-0.2-0.4-0.4-0.6c-0.2-0.2-0.4-0.3-0.6-0.4c-0.2-0.1-0.5-0.1-0.7-0.1h-2V17.5z"/>
	<path class="st4" d="M43.5,12.9c0-0.1,0-0.2,0-0.2c0-0.1,0.1-0.1,0.2-0.1h0.8c0.1,0,0.1,0,0.2,0.1c0,0.1,0,0.1,0,0.2v8.7
		c0,0.1,0,0.2,0,0.2c0,0.1-0.1,0.1-0.2,0.1h-0.8c-0.1,0-0.1,0-0.2-0.1c0-0.1,0-0.1,0-0.2V12.9z"/>
	<path class="st4" d="M46.9,12.9c0-0.1,0-0.2,0-0.2c0-0.1,0.1-0.1,0.2-0.1h3c0.5,0,1,0.1,1.4,0.2s0.7,0.4,1,0.6
		c0.3,0.3,0.5,0.6,0.6,0.9s0.2,0.7,0.2,1.1c0,0.3-0.1,0.6-0.1,0.9c-0.1,0.3-0.2,0.6-0.4,0.8c-0.2,0.3-0.4,0.5-0.7,0.6
		c-0.3,0.2-0.6,0.3-1,0.4l2.5,3.4c0.1,0.1,0.1,0.2,0.1,0.2s-0.1,0.1-0.1,0.1h-0.9c-0.1,0-0.2,0-0.3-0.1c-0.1,0-0.1-0.1-0.2-0.2
		l-2.4-3.3h-1.7v3.2c0,0.1,0,0.2,0,0.2c0,0.1-0.1,0.1-0.2,0.1h-0.8c-0.1,0-0.1,0-0.2-0.1c0-0.1,0-0.1,0-0.2L46.9,12.9L46.9,12.9z
		 M48.1,17.2h2c0.5,0,1-0.2,1.3-0.5c0.3-0.3,0.5-0.7,0.5-1.3c0-0.5-0.2-1-0.5-1.3c-0.3-0.3-0.8-0.5-1.3-0.5h-2V17.2z"/>
	<path class="st4" d="M62.9,21.6c0.1,0.1,0.1,0.2,0,0.2c-0.1,0.1-0.1,0.1-0.2,0.1H62c-0.1,0-0.1,0-0.2-0.1c-0.1-0.1-0.1-0.1-0.1-0.2
		l-0.9-2.1h-4.4l-0.9,2.1c-0.1,0.1-0.1,0.2-0.1,0.2c-0.1,0.1-0.1,0.1-0.2,0.1h-0.7c-0.1,0-0.1,0-0.2-0.1c-0.1-0.1-0.1-0.1,0-0.2
		l3.6-8.7c0-0.1,0.1-0.1,0.1-0.2c0.1-0.1,0.1-0.1,0.2-0.1H59c0.1,0,0.2,0,0.2,0.1c0.1,0.1,0.1,0.1,0.1,0.2L62.9,21.6z M56.9,18.3
		h3.4l-1.7-4.2L56.9,18.3z"/>
	<path class="st4" d="M65.3,17.7v3.1H69c0.1,0,0.1,0,0.2,0.1c0,0.1,0,0.1,0,0.2v0.5c0,0.1,0,0.2,0,0.2c0,0.1-0.1,0.1-0.2,0.1h-4.6
		c-0.1,0-0.1,0-0.2-0.1c0-0.1,0-0.1,0-0.2v-8.7c0-0.1,0-0.2,0-0.2c0-0.1,0.1-0.1,0.2-0.1H69c0.1,0,0.1,0,0.2,0.1c0,0.1,0,0.1,0,0.2
		v0.5c0,0.1,0,0.2,0,0.2c0,0.1-0.1,0.1-0.2,0.1h-3.6v2.9h2.5c0.1,0,0.1,0,0.2,0.1c0,0.1,0,0.1,0,0.2v0.5c0,0.1,0,0.2,0,0.2
		c0,0.1-0.1,0.1-0.2,0.1L65.3,17.7L65.3,17.7z"/>
	<path class="st4" d="M70.8,12.9c0-0.1,0-0.2,0-0.2c0-0.1,0.1-0.1,0.2-0.1h0.8c0.1,0,0.1,0,0.2,0.1c0,0.1,0,0.1,0,0.2v5.8
		c0,0.3,0.1,0.6,0.1,0.9s0.2,0.5,0.4,0.7c0.2,0.2,0.4,0.3,0.7,0.5c0.3,0.1,0.6,0.2,0.9,0.2c0.3,0,0.6-0.1,0.9-0.2
		c0.3-0.1,0.5-0.3,0.7-0.5c0.2-0.2,0.3-0.4,0.4-0.7c0.1-0.3,0.1-0.5,0.1-0.9v-5.8c0-0.1,0-0.2,0-0.2c0-0.1,0.1-0.1,0.2-0.1h0.8
		c0.1,0,0.1,0,0.2,0.1c0,0.1,0,0.1,0,0.2v5.8c0,0.5-0.1,1-0.2,1.4c-0.1,0.4-0.4,0.7-0.6,1c-0.3,0.3-0.6,0.5-1,0.7
		c-0.4,0.2-0.9,0.2-1.4,0.2c-0.5,0-1-0.1-1.4-0.2c-0.4-0.2-0.7-0.4-1-0.7c-0.3-0.3-0.5-0.6-0.6-1c-0.1-0.4-0.2-0.9-0.2-1.4V12.9z"/>
	<path class="st4" d="M81.6,20.8c0.5,0,1-0.1,1.3-0.4c0.3-0.3,0.4-0.6,0.4-1c0-0.4-0.1-0.7-0.3-0.9c-0.2-0.2-0.5-0.4-0.8-0.6
		c-0.3-0.2-0.7-0.3-1-0.5c-0.4-0.2-0.7-0.4-1-0.6c-0.3-0.2-0.6-0.5-0.8-0.8c-0.2-0.3-0.3-0.7-0.3-1.3c0-0.4,0.1-0.8,0.2-1.1
		c0.1-0.3,0.3-0.5,0.6-0.7c0.2-0.2,0.5-0.3,0.8-0.4c0.3-0.1,0.6-0.1,0.9-0.1c0.5,0,1,0.1,1.4,0.3c0.4,0.2,0.7,0.4,1.1,0.7
		c0.1,0.1,0.1,0.1,0.1,0.1c0,0,0,0.1-0.1,0.3l-0.3,0.4c-0.1,0.1-0.1,0.1-0.2,0.2s-0.1,0-0.2-0.1c-0.3-0.2-0.6-0.4-0.9-0.5
		c-0.3-0.1-0.5-0.2-0.9-0.2c-0.4,0-0.7,0.1-0.9,0.3c-0.2,0.2-0.3,0.5-0.3,0.8c0,0.3,0.1,0.6,0.3,0.8c0.2,0.2,0.5,0.4,0.8,0.6
		c0.3,0.2,0.7,0.3,1,0.5c0.4,0.2,0.7,0.4,1,0.6c0.3,0.2,0.6,0.5,0.8,0.9s0.3,0.8,0.3,1.3c0,0.5-0.1,0.9-0.3,1.2s-0.4,0.6-0.7,0.8
		c-0.3,0.2-0.6,0.4-0.9,0.5C82.3,22,82,22,81.6,22c-0.6,0-1.2-0.1-1.7-0.4c-0.5-0.2-0.9-0.5-1.3-0.9c-0.1-0.1-0.1-0.1-0.1-0.2
		c0,0,0-0.1,0.1-0.2l0.3-0.4c0.1-0.1,0.1-0.2,0.2-0.2s0.1,0,0.2,0.1c0.2,0.1,0.3,0.3,0.5,0.4c0.2,0.1,0.3,0.2,0.5,0.3
		c0.2,0.1,0.4,0.2,0.6,0.2C81.2,20.8,81.4,20.8,81.6,20.8"/>
	<path class="st4" d="M89.5,21.9c-0.1,0-0.1,0-0.2-0.1c0-0.1,0-0.1,0-0.2v-8.7c0-0.1,0-0.2,0-0.2c0-0.1,0.1-0.1,0.2-0.1h2.7
		c0.5,0,1,0.1,1.4,0.2c0.4,0.1,0.7,0.3,0.9,0.5c0.2,0.2,0.4,0.5,0.5,0.8c0.1,0.3,0.2,0.6,0.2,0.9c0,0.5-0.1,0.8-0.3,1.1
		c-0.2,0.3-0.5,0.6-0.9,0.8c0.6,0.2,1,0.5,1.3,0.9c0.3,0.4,0.5,0.9,0.5,1.5c0,0.3-0.1,0.7-0.2,1c-0.1,0.3-0.3,0.6-0.5,0.8
		c-0.3,0.2-0.5,0.4-0.9,0.6c-0.4,0.1-0.8,0.2-1.4,0.2L89.5,21.9L89.5,21.9z M90.5,16.5h1.6c0.5,0,1-0.1,1.3-0.3
		c0.3-0.2,0.5-0.6,0.5-1.1c0-0.5-0.1-0.9-0.5-1.1c-0.3-0.2-0.7-0.3-1.3-0.3h-1.7L90.5,16.5L90.5,16.5z M90.5,20.8h2.2
		c0.5,0,1-0.1,1.3-0.3c0.3-0.2,0.5-0.6,0.5-1.1c0-0.5-0.2-0.9-0.5-1.2c-0.3-0.3-0.8-0.4-1.3-0.4h-2.2V20.8z"/>
	<path class="st4" d="M104.8,21.6c0.1,0.1,0.1,0.2,0,0.2c-0.1,0.1-0.1,0.1-0.2,0.1h-0.7c-0.1,0-0.1,0-0.2-0.1
		c-0.1-0.1-0.1-0.1-0.1-0.2l-0.9-2.1h-4.4l-0.9,2.1c-0.1,0.1-0.1,0.2-0.1,0.2c-0.1,0.1-0.1,0.1-0.2,0.1h-0.7c-0.1,0-0.1,0-0.2-0.1
		c-0.1-0.1-0.1-0.1,0-0.2l3.6-8.7c0-0.1,0.1-0.1,0.1-0.2c0.1-0.1,0.1-0.1,0.2-0.1h0.7c0.1,0,0.2,0,0.2,0.1c0.1,0.1,0.1,0.1,0.1,0.2
		L104.8,21.6z M98.8,18.3h3.4l-1.7-4.2L98.8,18.3z"/>
	<path class="st4" d="M107.2,14.8v6.8c0,0.1,0,0.2,0,0.2c0,0.1-0.1,0.1-0.2,0.1h-0.7c-0.1,0-0.1,0-0.2-0.1c0-0.1,0-0.1,0-0.2v-8.7
		c0-0.1,0-0.2,0-0.2c0-0.1,0.1-0.1,0.2-0.1h0.7c0.1,0,0.1,0,0.2,0.1c0.1,0.1,0.1,0.1,0.1,0.2l4,6.8v-6.8c0-0.1,0-0.2,0-0.2
		c0-0.1,0.1-0.1,0.2-0.1h0.7c0.1,0,0.1,0,0.2,0.1c0,0.1,0,0.1,0,0.2v8.7c0,0.1,0,0.2,0,0.2c0,0.1-0.1,0.1-0.2,0.1h-0.7
		c-0.1,0-0.1,0-0.2-0.1c-0.1-0.1-0.1-0.1-0.1-0.2L107.2,14.8z"/>
	<path class="st4" d="M114.8,12.9c0-0.1,0-0.2,0-0.2c0-0.1,0.1-0.1,0.2-0.1h0.8c0.1,0,0.1,0,0.2,0.1c0,0.1,0,0.1,0,0.2v4l3.4-4
		c0.1-0.1,0.1-0.1,0.2-0.2c0.1-0.1,0.1-0.1,0.2-0.1h0.9c0.1,0,0.1,0,0.1,0.1c0,0.1,0,0.1-0.1,0.2l-3,3.6l3.8,5.1
		c0.1,0.1,0.1,0.2,0.1,0.2c0,0.1-0.1,0.1-0.1,0.1h-0.9c-0.1,0-0.2,0-0.3-0.1c-0.1,0-0.1-0.1-0.2-0.2l-3.1-4.3l-0.9,1.1v3.1
		c0,0.1,0,0.2,0,0.2c0,0.1-0.1,0.1-0.2,0.1H115c-0.1,0-0.1,0-0.2-0.1c0-0.1,0-0.1,0-0.2L114.8,12.9L114.8,12.9z"/>
</g>
<rect x="-0.3" y="-0.5" class="st4" width="32.4" height="33.8"/>
<polygon class="st3" points="16.1,22.2 -0.3,8.6 -0.3,12.1 14.5,24.3 "/>
<polygon class="st3" points="16,12.4 32.2,25.9 32.2,22.4 17.7,10.4 "/>
<polygon class="st3" points="24,22.2 9.7,10.4 8.1,12.4 22.4,24.3 "/>
</svg>
